<?xml version="1.0" encoding="UTF-8" standalone="no"?>
<!-- Created with Inkscape (http://www.inkscape.org/) -->

<svg
   width="49.419292mm"
   height="38.386417mm"
   viewBox="0 0 49.419292 38.386417"
   version="1.1"
   id="svg1301"
   sodipodi:docname="logo_white.svg"
   inkscape:version="1.2.2 (b0a8486541, 2022-12-01)"
   xmlns:inkscape="http://www.inkscape.org/namespaces/inkscape"
   xmlns:sodipodi="http://sodipodi.sourceforge.net/DTD/sodipodi-0.dtd"
   xmlns="http://www.w3.org/2000/svg"
   xmlns:svg="http://www.w3.org/2000/svg">
  <sodipodi:namedview
     id="namedview1303"
     pagecolor="#ffffff"
     bordercolor="#666666"
     borderopacity="1.0"
     inkscape:showpageshadow="2"
     inkscape:pageopacity="0.0"
     inkscape:pagecheckerboard="0"
     inkscape:deskcolor="#d1d1d1"
     inkscape:document-units="mm"
     showgrid="false"
     inkscape:zoom="3.7261744"
     inkscape:cx="84.000362"
     inkscape:cy="91.783143"
     inkscape:window-width="938"
     inkscape:window-height="504"
     inkscape:window-x="0"
     inkscape:window-y="0"
     inkscape:window-maximized="1"
     inkscape:current-layer="layer1" />
  <defs
     id="defs1298" />
  <g
     inkscape:label="Calque 1"
     inkscape:groupmode="layer"
     id="layer1"
     transform="translate(-31.135875,-115.36393)">
    <g
       style="font-style:normal;font-variant:normal;font-weight:normal;font-stretch:normal;font-size:1334.73px;line-height:1.25;font-family:Roboto;-inkscape-font-specification:'Roboto, Normal';font-variant-ligatures:normal;font-variant-caps:normal;font-variant-numeric:normal;font-variant-east-asian:normal;letter-spacing:274.771px;fill:#ffffff;fill-opacity:1;stroke:none;stroke-width:33.3683"
       id="text3811-7-4-8-8"
       aria-label="LUNISENS"
       transform="matrix(0.00622654,0,0,0.00622654,-27.959744,203.94418)" />
    <ellipse
       style="fill:none;fill-opacity:1;stroke:#6c6c6c;stroke-width:0.202598;stroke-dasharray:none;stroke-dashoffset:0.103009;stroke-opacity:1"
       id="path56741"
       cx="145.51639"
       cy="6.8794594"
       rx="13.106454"
       ry="25.844776"
       transform="rotate(64.760206)" />
    <path
       id="ellipse66956"
       style="color:#000000;fill:#6c6c6c;stroke-dashoffset:0.103009;-inkscape-stroke:none"
       d="m 88.113322,90.453571 c 0.141558,-0.307095 0.286658,-0.607287 0.435483,-0.900757 2.381198,-4.695511 5.684124,-7.625109 9.357342,-7.625109 1.954242,10e-7 3.803953,0.829412 5.465553,2.312589 l -0.0903,0.191646 c -1.64233,-1.480439 -3.463293,-2.303121 -5.375184,-2.303122 -3.565263,0 -6.815322,2.857106 -9.177718,7.515543 -2.362396,4.658437 -3.8262,11.105619 -3.8262,18.228559 0,4.42809 0.566416,8.59442 1.562037,12.23277 l -0.131551,0.27905 c -1.040619,-3.71112 -1.633443,-7.97389 -1.633442,-12.51151 0,-6.70379 1.29065,-12.813225 3.41402,-17.419659 z m 22.244758,8.749125 c 0.48894,2.711794 0.75724,5.629234 0.75724,8.670624 0,7.1507 -1.4704,13.62448 -3.85159,18.32 -2.3812,4.69551 -5.68432,7.62673 -9.357538,7.62673 -1.194589,0 -2.349659,-0.31145 -3.446962,-0.89139 l 0.08704,-0.18463 c 1.073601,0.56861 2.200024,0.87328 3.360087,0.87328 3.565263,0 6.815333,-2.8571 9.177713,-7.51554 2.3624,-4.65844 3.82805,-11.1059 3.82805,-18.22884 0,-2.92386 -0.25061,-5.73044 -0.7052,-8.349577 z"
       transform="matrix(-0.42640762,0.90453112,0.90453112,0.42640762,0,0)" />
    <ellipse
       style="fill:none;fill-opacity:1;stroke:#6c6c6c;stroke-width:0.202598;stroke-dasharray:none;stroke-dashoffset:0.103009;stroke-opacity:1"
       id="ellipse57834"
       cx="145.67558"
       cy="0.98651177"
       rx="13.106454"
       ry="25.844776"
       transform="rotate(67.078916)" />
    <path
       id="path24988"
       style="color:#000000;fill:#6c6c6c;stroke-dashoffset:0.103009;-inkscape-stroke:none"
       d="m 91.982823,87.345711 c 0.26804,-0.640367 0.551391,-1.255101 0.849041,-1.842041 2.381198,-4.695512 5.68637,-7.6266 9.359596,-7.626599 1.65441,10e-7 3.23314,0.596224 4.68695,1.678906 l -0.0813,0.192289 c -1.43451,-1.07827 -2.98729,-1.668103 -4.60568,-1.668104 -3.565266,-10e-7 -6.815413,2.855387 -9.17781,7.513826 -2.362396,4.658438 -3.828243,11.10707 -3.828242,18.230012 0,4.83019 0.674626,9.34901 1.845185,13.21063 l -0.123574,0.29224 c -1.221369,-3.93415 -1.924702,-8.55647 -1.924702,-13.5029 -10e-7,-6.25687 1.124267,-11.99569 3.000546,-16.478259 z m 22.482607,6.875382 c 0.60179,2.970432 0.93277,6.210407 0.93277,9.603177 0,7.1507 -1.46839,13.6248 -3.84959,18.3203 -2.38119,4.69552 -5.68394,7.62482 -9.35715,7.62482 -0.87441,0 -1.72772,-0.16788 -2.552893,-0.4842 l 0.0793,-0.18753 c 0.801833,0.30667 1.628773,0.46864 2.473623,0.46864 3.56526,-1e-5 6.81311,-2.85523 9.17551,-7.51368 2.36239,-4.65843 3.82811,-11.10544 3.82811,-18.22838 0,-3.26754 -0.30921,-6.39243 -0.87117,-9.268546 z"
       transform="matrix(-0.38946291,0.92104215,0.92104215,0.38946291,0,0)" />
    <ellipse
       style="fill:none;fill-opacity:1;stroke:#6c6c6c;stroke-width:0.202598;stroke-dasharray:none;stroke-dashoffset:0.103009;stroke-opacity:1"
       id="ellipse57836"
       cx="144.52246"
       cy="18.319609"
       rx="13.106454"
       ry="25.844776"
       transform="rotate(60.242655)" />
    <path
       id="ellipse66960"
       style="color:#000000;fill:#6c6c6c;stroke-dashoffset:0.103009;-inkscape-stroke:none"
       d="m 80.441672,95.656417 c 2.310201,-3.946254 5.334817,-6.353754 8.66367,-6.353754 2.497585,0 4.823692,1.356788 6.805562,3.700374 l -0.106441,0.186178 c -1.962458,-2.342107 -4.256795,-3.683557 -6.699101,-3.683558 -3.565264,0 -6.815134,2.857534 -9.17753,7.515973 -2.362396,4.65844 -3.826182,11.10572 -3.826182,18.22866 10e-7,3.7196 0.399848,7.25393 1.11769,10.44647 l -0.149274,0.2611 c -0.752743,-3.26461 -1.171858,-6.8896 -1.171859,-10.70781 0,-7.1507 1.468848,-13.62487 3.850046,-18.320374 0.223237,-0.440204 0.454432,-0.865026 0.693419,-1.273259 z m 21.385438,12.585363 c 0.31729,2.22934 0.48754,4.57952 0.48754,7.00812 0,7.15071 -1.47071,13.62501 -3.851906,18.32051 -2.381198,4.69552 -5.684001,7.62515 -9.357217,7.62515 -1.779303,0 -3.471187,-0.68954 -5.014059,-1.93206 l 0.101568,-0.17766 c 1.519123,1.23042 3.178008,1.90833 4.91215,1.90833 3.565261,0 6.815583,-2.85728 9.177979,-7.51571 2.362395,-4.65845 3.828485,-11.10559 3.828485,-18.22854 0,-2.32479 -0.15748,-4.57666 -0.44997,-6.71878 z"
       transform="matrix(-0.4963278,0.8681352,0.8681352,0.4963278,0,0)" />
    <ellipse
       style="fill:none;fill-opacity:1;stroke:#6c6c6c;stroke-width:0.202598;stroke-dasharray:none;stroke-dashoffset:0.103009;stroke-opacity:1"
       id="ellipse57838"
       cx="145.14531"
       cy="12.457509"
       rx="13.106454"
       ry="25.844776"
       transform="rotate(62.561365)" />
    <path
       id="ellipse66962"
       style="color:#000000;fill:#6c6c6c;stroke-dashoffset:0.103009;-inkscape-stroke:none"
       d="m 84.563686,92.793694 c 2.362075,-4.440749 5.57294,-7.190156 9.131368,-7.190156 2.22561,10e-7 4.315178,1.076625 6.146267,2.968756 l -0.09858,0.189873 c -1.811555,-1.889442 -3.870433,-2.955227 -6.047317,-2.955228 -3.565263,0 -6.815737,2.855051 -9.178133,7.513488 -2.362397,4.658439 -3.826069,11.107413 -3.826069,18.230353 0,4.0714 0.479151,7.92118 1.330083,11.34315 l -0.140732,0.27105 c -0.890755,-3.49469 -1.392514,-7.43877 -1.392514,-11.61429 0,-7.1507 1.468692,-13.626702 3.849889,-18.322214 0.07441,-0.146735 0.149546,-0.291532 0.225742,-0.434782 z m 21.726954,10.916856 c 0.39826,2.47395 0.61359,5.10757 0.61359,7.8403 0,7.15071 -1.4705,13.6246 -3.8517,18.32011 -2.38119,4.69551 -5.683895,7.62494 -9.357112,7.62494 -1.485914,0 -2.911448,-0.47931 -4.239682,-1.36106 l 0.0943,-0.18162 c 1.304468,0.86969 2.69878,1.33997 4.14524,1.33997 3.565264,0 6.815274,-2.85529 9.177674,-7.51372 2.3624,-4.65845 3.82812,-11.10577 3.82812,-18.22871 0,-2.62213 -0.19944,-5.15235 -0.56831,-7.53614 z"
       transform="matrix(-0.46079834,0.88750487,0.88750487,0.46079834,0,0)" />
    <ellipse
       style="fill:none;fill-opacity:1;stroke:#6c6c6c;stroke-width:0.202598;stroke-dasharray:none;stroke-dashoffset:0.103009;stroke-opacity:1"
       id="ellipse57840"
       cx="142.75987"
       cy="29.016663"
       rx="13.106454"
       ry="25.844776"
       transform="rotate(55.97777)" />
    <path
       id="ellipse66964"
       style="color:#000000;fill:#6c6c6c;stroke-dashoffset:0.103009;-inkscape-stroke:none"
       d="m 72.362702,100.78901 c 2.200312,-3.243786 4.941844,-5.177461 7.926332,-5.177461 2.961817,0 5.682787,1.905453 7.874032,5.104811 l -0.122015,0.18074 c -2.17213,-3.200701 -4.857369,-5.082742 -7.751759,-5.082742 -3.565262,0 -6.815539,2.855157 -9.177935,7.513602 -2.362397,4.65843 -3.828026,11.1057 -3.828026,18.22864 0,3.1295 0.283292,6.12833 0.800896,8.90296 l -0.160182,0.23728 c -0.54404,-2.84372 -0.843951,-5.92256 -0.843951,-9.14027 0,-7.1507 1.468142,-13.62473 3.849339,-18.32025 0.446474,-0.88041 0.925504,-1.69875 1.433269,-2.44731 z m 20.823966,15.1831 c 0.200575,1.79941 0.309459,3.66663 0.309459,5.58467 0,7.15071 -1.468152,13.6266 -3.84935,18.32212 -2.381197,4.6955 -5.68452,7.62478 -9.357738,7.62478 -2.282088,0 -4.422032,-1.13106 -6.28662,-3.11354 l 0.116522,-0.1726 c 1.840982,1.97017 3.943744,3.08333 6.16984,3.08333 3.565264,0 6.813675,-2.85518 9.176072,-7.51361 2.362396,-4.65844 3.828036,-11.10756 3.828036,-18.23051 0,-1.82618 -0.09805,-3.60692 -0.281149,-5.32551 z"
       transform="matrix(-0.55951452,0.82882055,0.82882055,0.55951452,0,0)" />
    <ellipse
       style="fill:none;fill-opacity:1;stroke:#6c6c6c;stroke-width:0.202598;stroke-dasharray:none;stroke-dashoffset:0.103009;stroke-opacity:1"
       id="ellipse57842"
       cx="143.81694"
       cy="23.217115"
       rx="13.106454"
       ry="25.844776"
       transform="rotate(58.29648)" />
    <path
       id="ellipse66966"
       style="color:#000000;fill:#6c6c6c;stroke-dashoffset:0.103009;-inkscape-stroke:none"
       d="m 76.718053,98.212865 c 2.27765,-3.706348 5.208757,-5.949135 8.422822,-5.949135 2.71514,0 5.22729,1.60195 7.315108,4.333266 l -0.113517,0.183774 c -2.068603,-2.730729 -4.547837,-4.313813 -7.201999,-4.313813 -3.565263,0 -6.815293,2.854961 -9.177689,7.5134 -2.362397,4.658433 -3.828234,11.105703 -3.828233,18.228653 0,3.44155 0.344986,6.72323 0.965143,9.72419 l -0.15534,0.25148 c -0.650708,-3.07137 -1.010729,-6.44055 -1.010729,-9.97587 -10e-7,-7.15071 1.468246,-13.62451 3.849444,-18.320026 0.29765,-0.586939 0.609611,-1.146441 0.93499,-1.675919 z m 21.231519,13.655855 c 0.258969,2.02945 0.397896,4.15277 0.397895,6.34044 -10e-7,7.15071 -1.468246,13.62451 -3.849444,18.32002 -2.381197,4.69551 -5.684091,7.62719 -9.357308,7.62719 -2.014743,0 -3.917696,-0.88386 -5.618662,-2.45506 l 0.108086,-0.17498 c 1.677469,1.55809 3.545837,2.42655 5.510545,2.42654 3.565262,1e-5 6.815293,-2.85496 9.177689,-7.5134 2.362397,-4.65843 3.828169,-11.10757 3.828169,-18.23051 0,-2.08973 -0.129571,-4.11885 -0.367517,-6.06414 z"
       transform="matrix(-0.52552392,0.85077883,0.85077883,0.52552392,0,0)" />
    <ellipse
       style="fill:none;fill-opacity:1;stroke:#6c6c6c;stroke-width:0.202598;stroke-dasharray:none;stroke-dashoffset:0.103009;stroke-opacity:1"
       id="ellipse57844"
       cx="140.03087"
       cy="40.170921"
       rx="13.106454"
       ry="25.844776"
       transform="rotate(51.460219)" />
    <path
       id="ellipse66968"
       style="color:#000000;fill:#6c6c6c;stroke-dashoffset:0.103009;-inkscape-stroke:none"
       d="m 63.321768,105.66477 c 2.053375,-2.59475 4.502962,-4.10785 7.143087,-4.10785 3.406071,0 6.49338,2.51966 8.823023,6.62977 l -0.135551,0.17017 c -2.312314,-4.11309 -5.362425,-6.59696 -8.687289,-6.59696 -3.565263,0 -6.815559,2.85491 -9.177956,7.51335 -2.362395,4.65843 -3.828072,11.10742 -3.828073,18.23036 0,2.57199 0.193541,5.05414 0.548958,7.3975 l -0.174188,0.21868 c -0.375223,-2.40854 -0.577743,-4.9654 -0.577743,-7.61599 10e-7,-7.15071 1.468474,-13.62666 3.849671,-18.32218 0.669712,-1.32061 1.412567,-2.50151 2.216061,-3.51685 z m 20.173995,17.62193 c 0.114021,1.37312 0.175974,2.78066 0.175975,4.2172 10e-7,7.15071 -1.468317,13.62481 -3.849514,18.32032 -2.381198,4.69552 -5.684074,7.62486 -9.357291,7.62486 -2.763249,0 -5.318411,-1.65793 -7.428369,-4.47827 l 0.131687,-0.16531 c 2.087479,2.80828 4.601624,4.44061 7.296499,4.44061 3.565263,0 6.815154,-2.85523 9.177551,-7.51368 2.362397,-4.65843 3.826464,-11.1054 3.826463,-18.22834 0,-1.35648 -0.05361,-2.68792 -0.155883,-3.9878 z"
       transform="matrix(-0.62305786,0.78217575,0.78217575,0.62305786,0,0)" />
    <ellipse
       style="fill:none;fill-opacity:1;stroke:#6c6c6c;stroke-width:0.202598;stroke-dasharray:none;stroke-dashoffset:0.103009;stroke-opacity:1"
       id="ellipse57846"
       cx="141.54146"
       cy="34.472652"
       rx="13.106454"
       ry="25.844776"
       transform="rotate(53.778929)" />
    <path
       id="ellipse66970"
       style="color:#000000;fill:#6c6c6c;stroke-dashoffset:0.103009;-inkscape-stroke:none"
       d="m 68.15713,103.0542 c 2.105718,-2.80483 4.652153,-4.452681 7.407066,-4.452681 3.183875,0 6.091008,2.202201 8.359774,5.846431 l -0.129471,0.17677 c -2.250341,-3.64691 -5.119965,-5.819896 -8.229965,-5.819896 -3.565263,0 -6.813317,2.855216 -9.175714,7.513646 -2.362397,4.65844 -3.828496,11.10745 -3.828495,18.23039 0,2.84966 0.238357,5.58799 0.67111,8.15005 l -0.167336,0.22846 c -0.455803,-2.62943 -0.706773,-5.44539 -0.706773,-8.37859 -10e-7,-7.1507 1.468581,-13.62689 3.849779,-18.32241 0.595299,-1.17388 1.248119,-2.23722 1.950025,-3.17217 z m 20.378218,16.58964 c 0.154459,1.589 0.237975,3.22727 0.237975,4.90481 0,7.1507 -1.468498,13.62504 -3.849696,18.32055 -2.381198,4.69552 -5.686042,7.62519 -9.359258,7.62519 -2.522603,0 -4.870602,-1.38212 -6.865334,-3.76857 l 0.12428,-0.16968 c 1.971552,2.37414 4.280855,3.73483 6.741438,3.73483 3.565262,0 6.81518,-2.85512 9.177575,-7.51356 2.362397,-4.65844 3.827996,-11.10589 3.827996,-18.22884 10e-7,-1.59093 -0.07676,-3.14542 -0.216663,-4.65668 z"
       transform="matrix(-0.59090239,0.80674306,0.80674306,0.59090239,0,0)" />
    <g
       aria-label="KHOLORS"
       id="text56320"
       style="font-weight:300;font-size:10.0876px;line-height:1.25;font-family:Roboto;-inkscape-font-specification:'Roboto, Light';letter-spacing:0.772583px;fill:#454545;stroke-width:0.252189">
      <path
         d="m 33.57404,135.12197 -0.709284,0.77825 v 1.89142 h -1.728881 v -7.17165 h 1.728881 v 3.16222 l 0.600921,-0.91123 1.546634,-2.25099 h 2.137705 l -2.423389,3.17208 2.423389,3.99957 h -2.049044 z"
         style="font-weight:900;-inkscape-font-specification:'Roboto, Heavy'"
         id="path308" />
      <path
         d="m 44.355414,137.79164 h -1.71903 v -2.99475 h -2.546528 v 2.99475 h -1.72888 v -7.17165 h 1.72888 v 2.84699 h 2.546528 v -2.84699 h 1.71903 z"
         style="font-weight:900;-inkscape-font-specification:'Roboto, Heavy'"
         id="path310" />
      <path
         d="m 52.294724,134.35358 q 0,1.04915 -0.389121,1.85695 -0.389121,0.80779 -1.108257,1.24617 -0.71421,0.43345 -1.630369,0.43345 -0.916158,0 -1.625443,-0.41867 -0.709284,-0.4236 -1.108257,-1.20677 -0.394047,-0.78317 -0.413749,-1.79784 v -0.4039 q 0,-1.05407 0.384196,-1.85694 0.389121,-0.8078 1.108257,-1.24618 0.724061,-0.43837 1.645145,-0.43837 0.911234,0 1.625444,0.43345 0.71421,0.43345 1.108256,1.23632 0.398973,0.79795 0.403898,1.83232 z m -1.758434,-0.30046 q 0,-1.06885 -0.359567,-1.62052 -0.354643,-0.55659 -1.019597,-0.55659 -1.300354,0 -1.374238,1.95053 l -0.0049,0.52704 q 0,1.05408 0.349717,1.62052 0.349716,0.56644 1.039298,0.56644 0.655103,0 1.009746,-0.55659 0.354642,-0.55659 0.359567,-1.60081 z"
         style="font-weight:900;-inkscape-font-specification:'Roboto, Heavy'"
         id="path312" />
      <path
         d="m 55.68772,136.46173 h 3.009533 v 1.32991 h -4.738414 v -7.17165 h 1.728881 z"
         style="font-weight:900;-inkscape-font-specification:'Roboto, Heavy'"
         id="path314" />
      <path
         d="m 65.95683,134.35358 q 0,1.04915 -0.389121,1.85695 -0.389122,0.80779 -1.108257,1.24617 -0.71421,0.43345 -1.630369,0.43345 -0.916159,0 -1.625443,-0.41867 -0.709285,-0.4236 -1.108257,-1.20677 -0.394047,-0.78317 -0.413749,-1.79784 v -0.4039 q 0,-1.05407 0.384195,-1.85694 0.389122,-0.8078 1.108257,-1.24618 0.724061,-0.43837 1.645146,-0.43837 0.911233,0 1.625443,0.43345 0.71421,0.43345 1.108257,1.23632 0.398972,0.79795 0.403898,1.83232 z m -1.758434,-0.30046 q 0,-1.06885 -0.359568,-1.62052 -0.354642,-0.55659 -1.019596,-0.55659 -1.300355,0 -1.374239,1.95053 l -0.0049,0.52704 q 0,1.05408 0.349716,1.62052 0.349717,0.56644 1.039299,0.56644 0.655103,0 1.009745,-0.55659 0.354642,-0.55659 0.359568,-1.60081 z"
         style="font-weight:900;-inkscape-font-specification:'Roboto, Heavy'"
         id="path316" />
      <path
         d="m 70.285687,135.25989 h -0.935862 v 2.53175 h -1.72888 v -7.17165 h 2.82236 q 1.275727,0 1.994863,0.56644 0.719135,0.56644 0.719135,1.60082 0,0.74869 -0.305386,1.24124 -0.300461,0.49256 -0.945713,0.79795 l 1.497378,2.89132 v 0.0739 h -1.85202 z m -0.935862,-1.33483 h 1.09348 q 0.492559,0 0.738838,-0.25613 0.251205,-0.26106 0.251205,-0.72407 0,-0.463 -0.251205,-0.72406 -0.251205,-0.26598 -0.738838,-0.26598 h -1.09348 z"
         style="font-weight:900;-inkscape-font-specification:'Roboto, Heavy'"
         id="path318" />
      <path
         d="m 78.673224,135.88544 q 0,-0.37927 -0.270907,-0.59107 -0.265982,-0.2118 -0.940787,-0.43838 -0.674805,-0.22657 -1.103331,-0.43838 -1.393941,-0.68465 -1.393941,-1.88157 0,-0.59599 0.344791,-1.04915 0.349717,-0.45808 0.985117,-0.70928 0.635401,-0.25613 1.42842,-0.25613 0.773317,0 1.38409,0.27583 0.615698,0.27583 0.955563,0.78809 0.339866,0.50734 0.339866,1.16244 H 78.67815 q 0,-0.43838 -0.270907,-0.67973 -0.265982,-0.24135 -0.724062,-0.24135 -0.463005,0 -0.733912,0.20687 -0.265981,0.20195 -0.265981,0.51719 0,0.27583 0.295535,0.50241 0.295535,0.22165 1.039298,0.463 0.743764,0.23643 1.221546,0.51226 1.162438,0.66988 1.162438,1.8471 0,0.94079 -0.709285,1.47767 -0.709284,0.53689 -1.945606,0.53689 -0.871829,0 -1.581113,-0.31031 -0.704359,-0.31524 -1.063926,-0.85705 -0.354643,-0.54674 -0.354643,-1.25603 h 1.733807 q 0,0.5763 0.295535,0.85213 0.30046,0.27091 0.97034,0.27091 0.428526,0 0.674805,-0.18225 0.251205,-0.18717 0.251205,-0.52211 z"
         style="font-weight:900;-inkscape-font-specification:'Roboto, Heavy'"
         id="path320" />
    </g>
    <g
       aria-label="trackless audio editor"
       id="text56324"
       style="font-weight:bold;font-size:3.01598px;line-height:1.25;font-family:Roboto;-inkscape-font-specification:'Roboto, Bold';letter-spacing:0.933979px;fill:#313131;stroke-width:0.0753998">
      <path
         d="m 32.322196,138.95347 v 0.39173 h 0.27244 v 0.3122 h -0.27244 v 0.79523 q 0,0.0883 0.03387,0.12664 0.03387,0.0383 0.129593,0.0383 0.07069,0 0.125175,-0.0103 v 0.32251 q -0.125175,0.0383 -0.257713,0.0383 -0.447685,0 -0.456521,-0.4521 v -0.85855 h -0.232678 v -0.3122 h 0.232678 v -0.39173 z"
         id="path323" />
      <path
         d="m 34.66108,139.74428 q -0.08689,-0.0118 -0.153155,-0.0118 -0.241514,0 -0.316619,0.16346 v 1.04264 h -0.425595 v -1.5934 h 0.402032 l 0.01178,0.18997 q 0.128121,-0.21943 0.354908,-0.21943 0.07069,0 0.132538,0.0191 z"
         id="path325" />
      <path
         d="m 36.678927,140.9386 q -0.02945,-0.0574 -0.04271,-0.14285 -0.154628,0.1723 -0.402033,0.1723 -0.23415,0 -0.388778,-0.13548 -0.153156,-0.13549 -0.153156,-0.34166 0,-0.25329 0.187027,-0.38877 0.188498,-0.13549 0.543406,-0.13696 h 0.195862 v -0.0913 q 0,-0.11045 -0.05743,-0.17672 -0.05596,-0.0663 -0.17819,-0.0663 -0.107504,0 -0.169355,0.0515 -0.06038,0.0515 -0.06038,0.14138 h -0.425595 q 0,-0.13843 0.08541,-0.25625 0.08541,-0.11781 0.241514,-0.18408 0.156101,-0.0677 0.35049,-0.0677 0.29453,0 0.466829,0.14874 0.173773,0.14726 0.173773,0.41529 v 0.69067 q 0.0015,0.22678 0.06332,0.34312 v 0.025 z m -0.351963,-0.296 q 0.09425,0 0.173772,-0.0412 0.07952,-0.0427 0.117812,-0.11339 v -0.27391 h -0.159046 q -0.319564,0 -0.340181,0.22089 l -0.0015,0.025 q 0,0.0795 0.05596,0.13106 0.05596,0.0515 0.153155,0.0515 z"
         id="path327" />
      <path
         d="m 38.969213,140.62492 q 0.117812,0 0.191444,-0.0648 0.07363,-0.0648 0.07658,-0.1723 h 0.399087 q -0.0015,0.16199 -0.08836,0.29747 -0.08689,0.13401 -0.238569,0.20912 -0.15021,0.0736 -0.332818,0.0736 -0.341654,0 -0.538988,-0.21648 -0.197335,-0.21795 -0.197335,-0.60084 v -0.028 q 0,-0.36816 0.195862,-0.58758 0.195862,-0.21943 0.537516,-0.21943 0.298947,0 0.47861,0.17083 0.181136,0.16935 0.184081,0.4521 h -0.399087 q -0.0029,-0.1237 -0.07658,-0.20028 -0.07363,-0.0781 -0.194389,-0.0781 -0.148738,0 -0.225315,0.10898 -0.07511,0.1075 -0.07511,0.35049 v 0.0442 q 0,0.24593 0.07511,0.35343 0.07511,0.1075 0.22826,0.1075 z"
         id="path329" />
      <path
         d="m 41.392038,140.29947 -0.153155,0.15316 v 0.48597 h -0.425595 v -2.26199 h 0.425595 v 1.25323 l 0.08247,-0.10603 0.407923,-0.47861 h 0.511008 l -0.575804,0.66416 0.625874,0.92924 h -0.488918 z"
         id="path331" />
      <path
         d="m 43.807499,140.9386 h -0.427068 v -2.26199 h 0.427068 z"
         id="path333" />
      <path
         d="m 45.825346,140.96805 q -0.35049,0 -0.571387,-0.215 -0.219424,-0.21501 -0.219424,-0.57286 v -0.0412 q 0,-0.24004 0.09278,-0.42854 0.09278,-0.18997 0.262131,-0.29158 0.170827,-0.10309 0.388779,-0.10309 0.326928,0 0.513954,0.20617 0.188498,0.20617 0.188498,0.58464 v 0.17378 H 45.46602 q 0.02062,0.1561 0.123702,0.25035 0.104558,0.0942 0.263604,0.0942 0.245932,0 0.384361,-0.17819 l 0.209116,0.23416 q -0.09572,0.13548 -0.259186,0.21206 -0.163464,0.0751 -0.362271,0.0751 z m -0.0486,-1.30771 q -0.126647,0 -0.20617,0.0854 -0.07805,0.0854 -0.10014,0.24446 h 0.592004 v -0.0339 q -0.0029,-0.14137 -0.07658,-0.21795 -0.07363,-0.0781 -0.209116,-0.0781 z"
         id="path335" />
      <path
         d="m 48.519137,140.49828 q 0,-0.078 -0.07805,-0.12223 -0.07658,-0.0456 -0.247405,-0.081 -0.568441,-0.11928 -0.568441,-0.48303 0,-0.21206 0.175245,-0.35343 0.176717,-0.14285 0.460938,-0.14285 0.303365,0 0.484501,0.14285 0.182608,0.14285 0.182608,0.37111 h -0.425595 q 0,-0.0913 -0.05891,-0.15021 -0.05891,-0.0604 -0.184081,-0.0604 -0.107503,0 -0.166409,0.0486 -0.05891,0.0486 -0.05891,0.12371 0,0.0707 0.06627,0.11486 0.06774,0.0427 0.226788,0.0751 0.159046,0.0309 0.268022,0.0707 0.337236,0.1237 0.337236,0.42854 0,0.21795 -0.187026,0.35343 -0.187026,0.13401 -0.483028,0.13401 -0.20028,0 -0.356381,-0.0707 -0.154628,-0.0722 -0.242987,-0.19586 -0.08836,-0.12517 -0.08836,-0.26949 h 0.403505 q 0.0059,0.11339 0.08394,0.17377 0.07805,0.0604 0.209115,0.0604 0.12223,0 0.184081,-0.0456 0.06332,-0.0471 0.06332,-0.12223 z"
         id="path337" />
      <path
         d="m 51.003813,140.49828 q 0,-0.078 -0.07805,-0.12223 -0.07658,-0.0456 -0.247404,-0.081 -0.568442,-0.11928 -0.568442,-0.48303 0,-0.21206 0.175245,-0.35343 0.176718,-0.14285 0.460938,-0.14285 0.303365,0 0.484501,0.14285 0.182608,0.14285 0.182608,0.37111 h -0.425595 q 0,-0.0913 -0.05891,-0.15021 -0.05891,-0.0604 -0.18408,-0.0604 -0.107504,0 -0.166409,0.0486 -0.05891,0.0486 -0.05891,0.12371 0,0.0707 0.06627,0.11486 0.06774,0.0427 0.226787,0.0751 0.159046,0.0309 0.268022,0.0707 0.337236,0.1237 0.337236,0.42854 0,0.21795 -0.187026,0.35343 -0.187026,0.13401 -0.483028,0.13401 -0.20028,0 -0.35638,-0.0707 -0.154628,-0.0722 -0.242987,-0.19586 -0.08836,-0.12517 -0.08836,-0.26949 h 0.403505 q 0.0059,0.11339 0.08394,0.17377 0.07805,0.0604 0.209116,0.0604 0.122229,0 0.184081,-0.0456 0.06332,-0.0471 0.06332,-0.12223 z"
         id="path339" />
      <path
         d="m 55.233896,140.9386 q -0.02945,-0.0574 -0.04271,-0.14285 -0.154628,0.1723 -0.402033,0.1723 -0.234151,0 -0.388779,-0.13548 -0.153155,-0.13549 -0.153155,-0.34166 0,-0.25329 0.187026,-0.38877 0.188499,-0.13549 0.543407,-0.13696 h 0.195862 v -0.0913 q 0,-0.11045 -0.05743,-0.17672 -0.05596,-0.0663 -0.178191,-0.0663 -0.107503,0 -0.169354,0.0515 -0.06038,0.0515 -0.06038,0.14138 h -0.425595 q 0,-0.13843 0.08541,-0.25625 0.08541,-0.11781 0.241514,-0.18408 0.156101,-0.0677 0.35049,-0.0677 0.294529,0 0.466829,0.14874 0.173772,0.14726 0.173772,0.41529 v 0.69067 q 0.0015,0.22678 0.06332,0.34312 v 0.025 z m -0.351962,-0.296 q 0.09425,0 0.173772,-0.0412 0.07952,-0.0427 0.117812,-0.11339 v -0.27391 h -0.159046 q -0.319564,0 -0.340181,0.22089 l -0.0015,0.025 q 0,0.0795 0.05596,0.13106 0.05596,0.0515 0.153155,0.0515 z"
         id="path341" />
      <path
         d="m 57.815767,140.77661 q -0.157573,0.19144 -0.435903,0.19144 -0.256241,0 -0.391724,-0.14726 -0.134011,-0.14727 -0.136956,-0.43149 v -1.0441 h 0.425595 v 1.02938 q 0,0.24887 0.226787,0.24887 0.216479,0 0.297475,-0.15021 v -1.12804 h 0.427067 v 1.5934 h -0.40056 z"
         id="path343" />
      <path
         d="m 59.416855,140.13012 q 0,-0.37258 0.166409,-0.59348 0.167882,-0.2209 0.457993,-0.2209 0.232678,0 0.384361,0.17377 v -0.8129 h 0.427067 v 2.26199 h -0.384361 l -0.02062,-0.16936 q -0.159045,0.19881 -0.409395,0.19881 -0.281276,0 -0.452103,-0.2209 -0.169354,-0.22237 -0.169354,-0.61703 z m 0.425595,0.0309 q 0,0.22384 0.07805,0.34313 0.07805,0.11928 0.226788,0.11928 0.197334,0 0.27833,-0.16641 v -0.62882 q -0.07952,-0.16641 -0.275385,-0.16641 -0.307783,0 -0.307783,0.49923 z"
         id="path345" />
      <path
         d="m 62.565693,140.9386 h -0.427068 v -1.5934 h 0.427068 z m -0.452103,-2.00575 q 0,-0.0957 0.06332,-0.15757 0.0648,-0.0619 0.175245,-0.0619 0.108976,0 0.173772,0.0619 0.0648,0.0618 0.0648,0.15757 0,0.0972 -0.06627,0.15905 -0.0648,0.0618 -0.172299,0.0618 -0.107503,0 -0.173772,-0.0618 -0.0648,-0.0619 -0.0648,-0.15905 z"
         id="path347" />
      <path
         d="m 63.783894,140.12717 q 0,-0.2371 0.0913,-0.42265 0.0913,-0.18555 0.262131,-0.28717 0.172299,-0.10161 0.399087,-0.10161 0.32251,0 0.525735,0.19734 0.204698,0.19733 0.22826,0.53604 l 0.0029,0.10898 q 0,0.36668 -0.204698,0.58905 -0.204697,0.2209 -0.549297,0.2209 -0.344599,0 -0.55077,-0.2209 -0.204697,-0.22089 -0.204697,-0.60084 z m 0.425594,0.0309 q 0,0.22678 0.08541,0.34754 0.08541,0.11928 0.244459,0.11928 0.154628,0 0.241514,-0.11781 0.08689,-0.11928 0.08689,-0.37994 0,-0.22237 -0.08689,-0.3446 -0.08689,-0.12223 -0.244459,-0.12223 -0.156101,0 -0.241514,0.12223 -0.08541,0.12076 -0.08541,0.37553 z"
         id="path349" />
      <path
         d="m 68.907874,140.96805 q -0.35049,0 -0.571387,-0.215 -0.219424,-0.21501 -0.219424,-0.57286 v -0.0412 q 0,-0.24004 0.09278,-0.42854 0.09278,-0.18997 0.262131,-0.29158 0.170827,-0.10309 0.388779,-0.10309 0.326928,0 0.513954,0.20617 0.188499,0.20617 0.188499,0.58464 v 0.17378 h -1.014654 q 0.02062,0.1561 0.123702,0.25035 0.104558,0.0942 0.263604,0.0942 0.245932,0 0.384361,-0.17819 l 0.209116,0.23416 q -0.09572,0.13548 -0.259186,0.21206 -0.163464,0.0751 -0.362271,0.0751 z m -0.0486,-1.30771 q -0.126647,0 -0.20617,0.0854 -0.07805,0.0854 -0.10014,0.24446 h 0.592004 v -0.0339 q -0.0029,-0.14137 -0.07658,-0.21795 -0.07363,-0.0781 -0.209116,-0.0781 z"
         id="path351" />
      <path
         d="m 70.672424,140.13012 q 0,-0.37258 0.166409,-0.59348 0.167882,-0.2209 0.457993,-0.2209 0.232679,0 0.384361,0.17377 v -0.8129 h 0.427068 v 2.26199 h -0.384361 l -0.02062,-0.16936 q -0.159046,0.19881 -0.409396,0.19881 -0.281275,0 -0.452102,-0.2209 -0.169355,-0.22237 -0.169355,-0.61703 z m 0.425595,0.0309 q 0,0.22384 0.07805,0.34313 0.07805,0.11928 0.226788,0.11928 0.197335,0 0.27833,-0.16641 v -0.62882 q -0.07952,-0.16641 -0.275385,-0.16641 -0.307783,0 -0.307783,0.49923 z"
         id="path353" />
      <path
         d="m 73.821262,140.9386 h -0.427067 v -1.5934 h 0.427067 z m -0.452102,-2.00575 q 0,-0.0957 0.06332,-0.15757 0.0648,-0.0619 0.175245,-0.0619 0.108976,0 0.173773,0.0619 0.0648,0.0618 0.0648,0.15757 0,0.0972 -0.06627,0.15905 -0.0648,0.0618 -0.1723,0.0618 -0.107503,0 -0.173772,-0.0618 -0.0648,-0.0619 -0.0648,-0.15905 z"
         id="path355" />
      <path
         d="m 75.615268,138.95347 v 0.39173 h 0.272439 v 0.3122 h -0.272439 v 0.79523 q 0,0.0883 0.03387,0.12664 0.03387,0.0383 0.129593,0.0383 0.07069,0 0.125175,-0.0103 v 0.32251 q -0.125175,0.0383 -0.257714,0.0383 -0.447684,0 -0.45652,-0.4521 v -0.85855 h -0.232678 v -0.3122 h 0.232678 v -0.39173 z"
         id="path357" />
      <path
         d="m 76.948334,140.12717 q 0,-0.2371 0.0913,-0.42265 0.0913,-0.18555 0.262131,-0.28717 0.1723,-0.10161 0.399087,-0.10161 0.32251,0 0.525735,0.19734 0.204698,0.19733 0.22826,0.53604 l 0.0029,0.10898 q 0,0.36668 -0.204697,0.58905 -0.204698,0.2209 -0.549298,0.2209 -0.344599,0 -0.550769,-0.2209 -0.204698,-0.22089 -0.204698,-0.60084 z m 0.425595,0.0309 q 0,0.22678 0.08541,0.34754 0.08541,0.11928 0.244459,0.11928 0.154628,0 0.241514,-0.11781 0.08689,-0.11928 0.08689,-0.37994 0,-0.22237 -0.08689,-0.3446 -0.08689,-0.12223 -0.244459,-0.12223 -0.1561,0 -0.241514,0.12223 -0.08541,0.12076 -0.08541,0.37553 z"
         id="path359" />
      <path
         d="m 80.549277,139.74428 q -0.08689,-0.0118 -0.153155,-0.0118 -0.241514,0 -0.316619,0.16346 v 1.04264 h -0.425595 v -1.5934 h 0.402032 l 0.01178,0.18997 q 0.12812,-0.21943 0.354907,-0.21943 0.07069,0 0.132539,0.0191 z"
         id="path361" />
    </g>
  </g>
</svg>
