<?xml version="1.0" encoding="UTF-8" standalone="no"?>
<!-- Created with Inkscape (http://www.inkscape.org/) -->

<svg
   width="49.419292mm"
   height="38.386417mm"
   viewBox="0 0 49.419292 38.386417"
   version="1.1"
   id="svg1301"
   sodipodi:docname="logo_dark.svg"
   inkscape:version="1.2.2 (b0a8486541, 2022-12-01)"
   xmlns:inkscape="http://www.inkscape.org/namespaces/inkscape"
   xmlns:sodipodi="http://sodipodi.sourceforge.net/DTD/sodipodi-0.dtd"
   xmlns="http://www.w3.org/2000/svg"
   xmlns:svg="http://www.w3.org/2000/svg">
  <sodipodi:namedview
     id="namedview1303"
     pagecolor="#000000"
     bordercolor="#666666"
     borderopacity="1.0"
     inkscape:showpageshadow="2"
     inkscape:pageopacity="0"
     inkscape:pagecheckerboard="0"
     inkscape:deskcolor="#000000"
     inkscape:document-units="mm"
     showgrid="false"
     inkscape:zoom="1.8630871"
     inkscape:cx="106.81197"
     inkscape:cy="129.89194"
     inkscape:window-width="1888"
     inkscape:window-height="1020"
     inkscape:window-x="0"
     inkscape:window-y="0"
     inkscape:window-maximized="1"
     inkscape:current-layer="layer1" />
  <defs
     id="defs1298" />
  <g
     inkscape:label="Calque 1"
     inkscape:groupmode="layer"
     id="layer1"
     transform="translate(-31.135875,-115.36393)">
    <g
       style="font-style:normal;font-variant:normal;font-weight:normal;font-stretch:normal;font-size:1334.73px;line-height:1.25;font-family:Roboto;-inkscape-font-specification:'Roboto, Normal';font-variant-ligatures:normal;font-variant-caps:normal;font-variant-numeric:normal;font-variant-east-asian:normal;letter-spacing:274.771px;fill:#ffffff;fill-opacity:1;stroke:none;stroke-width:33.3683"
       id="text3811-7-4-8-8"
       aria-label="LUNISENS"
       transform="matrix(0.00622654,0,0,0.00622654,-27.959744,203.94418)" />
    <ellipse
       style="fill:none;fill-opacity:1;stroke:#969696;stroke-width:0.202598;stroke-dasharray:none;stroke-dashoffset:0.103009;stroke-opacity:1"
       id="path56741"
       cx="145.51639"
       cy="6.8794594"
       rx="13.106454"
       ry="25.844776"
       transform="rotate(64.760206)" />
    <path
       id="ellipse66956"
       style="color:#000000;fill:#979797;stroke-dashoffset:0.103009;-inkscape-stroke:none;fill-opacity:1"
       d="m 88.113322,90.453571 c 0.141558,-0.307095 0.286658,-0.607287 0.435483,-0.900757 2.381198,-4.695511 5.684124,-7.625109 9.357342,-7.625109 1.954242,10e-7 3.803953,0.829412 5.465553,2.312589 l -0.0903,0.191646 c -1.64233,-1.480439 -3.463293,-2.303121 -5.375184,-2.303122 -3.565263,0 -6.815322,2.857106 -9.177718,7.515543 -2.362396,4.658437 -3.8262,11.105619 -3.8262,18.228559 0,4.42809 0.566416,8.59442 1.562037,12.23277 l -0.131551,0.27905 c -1.040619,-3.71112 -1.633443,-7.97389 -1.633442,-12.51151 0,-6.70379 1.29065,-12.813225 3.41402,-17.419659 z m 22.244758,8.749125 c 0.48894,2.711794 0.75724,5.629234 0.75724,8.670624 0,7.1507 -1.4704,13.62448 -3.85159,18.32 -2.3812,4.69551 -5.68432,7.62673 -9.357538,7.62673 -1.194589,0 -2.349659,-0.31145 -3.446962,-0.89139 l 0.08704,-0.18463 c 1.073601,0.56861 2.200024,0.87328 3.360087,0.87328 3.565263,0 6.815333,-2.8571 9.177713,-7.51554 2.3624,-4.65844 3.82805,-11.1059 3.82805,-18.22884 0,-2.92386 -0.25061,-5.73044 -0.7052,-8.349577 z"
       transform="matrix(-0.42640762,0.90453112,0.90453112,0.42640762,0,0)" />
    <ellipse
       style="fill:none;fill-opacity:1;stroke:#969696;stroke-width:0.202598;stroke-dasharray:none;stroke-dashoffset:0.103009;stroke-opacity:1"
       id="ellipse57834"
       cx="145.67558"
       cy="0.98651177"
       rx="13.106454"
       ry="25.844776"
       transform="rotate(67.078916)" />
    <path
       id="path24988"
       style="color:#000000;fill:#979797;stroke-dashoffset:0.103009;-inkscape-stroke:none;fill-opacity:1"
       d="m 91.982823,87.345711 c 0.26804,-0.640367 0.551391,-1.255101 0.849041,-1.842041 2.381198,-4.695512 5.68637,-7.6266 9.359596,-7.626599 1.65441,10e-7 3.23314,0.596224 4.68695,1.678906 l -0.0813,0.192289 c -1.43451,-1.07827 -2.98729,-1.668103 -4.60568,-1.668104 -3.565266,-10e-7 -6.815413,2.855387 -9.17781,7.513826 -2.362396,4.658438 -3.828243,11.10707 -3.828242,18.230012 0,4.83019 0.674626,9.34901 1.845185,13.21063 l -0.123574,0.29224 c -1.221369,-3.93415 -1.924702,-8.55647 -1.924702,-13.5029 -10e-7,-6.25687 1.124267,-11.99569 3.000546,-16.478259 z m 22.482607,6.875382 c 0.60179,2.970432 0.93277,6.210407 0.93277,9.603177 0,7.1507 -1.46839,13.6248 -3.84959,18.3203 -2.38119,4.69552 -5.68394,7.62482 -9.35715,7.62482 -0.87441,0 -1.72772,-0.16788 -2.552893,-0.4842 l 0.0793,-0.18753 c 0.801833,0.30667 1.628773,0.46864 2.473623,0.46864 3.56526,-1e-5 6.81311,-2.85523 9.17551,-7.51368 2.36239,-4.65843 3.82811,-11.10544 3.82811,-18.22838 0,-3.26754 -0.30921,-6.39243 -0.87117,-9.268546 z"
       transform="matrix(-0.38946291,0.92104215,0.92104215,0.38946291,0,0)" />
    <ellipse
       style="fill:none;fill-opacity:1;stroke:#969696;stroke-width:0.202598;stroke-dasharray:none;stroke-dashoffset:0.103009;stroke-opacity:1"
       id="ellipse57836"
       cx="144.52246"
       cy="18.319609"
       rx="13.106454"
       ry="25.844776"
       transform="rotate(60.242655)" />
    <path
       id="ellipse66960"
       style="color:#000000;fill:#979797;stroke-dashoffset:0.103009;-inkscape-stroke:none;fill-opacity:1"
       d="m 80.441672,95.656417 c 2.310201,-3.946254 5.334817,-6.353754 8.66367,-6.353754 2.497585,0 4.823692,1.356788 6.805562,3.700374 l -0.106441,0.186178 c -1.962458,-2.342107 -4.256795,-3.683557 -6.699101,-3.683558 -3.565264,0 -6.815134,2.857534 -9.17753,7.515973 -2.362396,4.65844 -3.826182,11.10572 -3.826182,18.22866 10e-7,3.7196 0.399848,7.25393 1.11769,10.44647 l -0.149274,0.2611 c -0.752743,-3.26461 -1.171858,-6.8896 -1.171859,-10.70781 0,-7.1507 1.468848,-13.62487 3.850046,-18.320374 0.223237,-0.440204 0.454432,-0.865026 0.693419,-1.273259 z m 21.385438,12.585363 c 0.31729,2.22934 0.48754,4.57952 0.48754,7.00812 0,7.15071 -1.47071,13.62501 -3.851906,18.32051 -2.381198,4.69552 -5.684001,7.62515 -9.357217,7.62515 -1.779303,0 -3.471187,-0.68954 -5.014059,-1.93206 l 0.101568,-0.17766 c 1.519123,1.23042 3.178008,1.90833 4.91215,1.90833 3.565261,0 6.815583,-2.85728 9.177979,-7.51571 2.362395,-4.65845 3.828485,-11.10559 3.828485,-18.22854 0,-2.32479 -0.15748,-4.57666 -0.44997,-6.71878 z"
       transform="matrix(-0.4963278,0.8681352,0.8681352,0.4963278,0,0)" />
    <ellipse
       style="fill:none;fill-opacity:1;stroke:#969696;stroke-width:0.202598;stroke-dasharray:none;stroke-dashoffset:0.103009;stroke-opacity:1"
       id="ellipse57838"
       cx="145.14531"
       cy="12.457509"
       rx="13.106454"
       ry="25.844776"
       transform="rotate(62.561365)" />
    <path
       id="ellipse66962"
       style="color:#000000;fill:#979797;stroke-dashoffset:0.103009;-inkscape-stroke:none;fill-opacity:1"
       d="m 84.563686,92.793694 c 2.362075,-4.440749 5.57294,-7.190156 9.131368,-7.190156 2.22561,10e-7 4.315178,1.076625 6.146267,2.968756 l -0.09858,0.189873 c -1.811555,-1.889442 -3.870433,-2.955227 -6.047317,-2.955228 -3.565263,0 -6.815737,2.855051 -9.178133,7.513488 -2.362397,4.658439 -3.826069,11.107413 -3.826069,18.230353 0,4.0714 0.479151,7.92118 1.330083,11.34315 l -0.140732,0.27105 c -0.890755,-3.49469 -1.392514,-7.43877 -1.392514,-11.61429 0,-7.1507 1.468692,-13.626702 3.849889,-18.322214 0.07441,-0.146735 0.149546,-0.291532 0.225742,-0.434782 z m 21.726954,10.916856 c 0.39826,2.47395 0.61359,5.10757 0.61359,7.8403 0,7.15071 -1.4705,13.6246 -3.8517,18.32011 -2.38119,4.69551 -5.683895,7.62494 -9.357112,7.62494 -1.485914,0 -2.911448,-0.47931 -4.239682,-1.36106 l 0.0943,-0.18162 c 1.304468,0.86969 2.69878,1.33997 4.14524,1.33997 3.565264,0 6.815274,-2.85529 9.177674,-7.51372 2.3624,-4.65845 3.82812,-11.10577 3.82812,-18.22871 0,-2.62213 -0.19944,-5.15235 -0.56831,-7.53614 z"
       transform="matrix(-0.46079834,0.88750487,0.88750487,0.46079834,0,0)" />
    <ellipse
       style="fill:none;fill-opacity:1;stroke:#969696;stroke-width:0.202598;stroke-dasharray:none;stroke-dashoffset:0.103009;stroke-opacity:1"
       id="ellipse57840"
       cx="142.75987"
       cy="29.016663"
       rx="13.106454"
       ry="25.844776"
       transform="rotate(55.97777)" />
    <path
       id="ellipse66964"
       style="color:#000000;fill:#979797;stroke-dashoffset:0.103009;-inkscape-stroke:none;fill-opacity:1"
       d="m 72.362702,100.78901 c 2.200312,-3.243786 4.941844,-5.177461 7.926332,-5.177461 2.961817,0 5.682787,1.905453 7.874032,5.104811 l -0.122015,0.18074 c -2.17213,-3.200701 -4.857369,-5.082742 -7.751759,-5.082742 -3.565262,0 -6.815539,2.855157 -9.177935,7.513602 -2.362397,4.65843 -3.828026,11.1057 -3.828026,18.22864 0,3.1295 0.283292,6.12833 0.800896,8.90296 l -0.160182,0.23728 c -0.54404,-2.84372 -0.843951,-5.92256 -0.843951,-9.14027 0,-7.1507 1.468142,-13.62473 3.849339,-18.32025 0.446474,-0.88041 0.925504,-1.69875 1.433269,-2.44731 z m 20.823966,15.1831 c 0.200575,1.79941 0.309459,3.66663 0.309459,5.58467 0,7.15071 -1.468152,13.6266 -3.84935,18.32212 -2.381197,4.6955 -5.68452,7.62478 -9.357738,7.62478 -2.282088,0 -4.422032,-1.13106 -6.28662,-3.11354 l 0.116522,-0.1726 c 1.840982,1.97017 3.943744,3.08333 6.16984,3.08333 3.565264,0 6.813675,-2.85518 9.176072,-7.51361 2.362396,-4.65844 3.828036,-11.10756 3.828036,-18.23051 0,-1.82618 -0.09805,-3.60692 -0.281149,-5.32551 z"
       transform="matrix(-0.55951452,0.82882055,0.82882055,0.55951452,0,0)" />
    <ellipse
       style="fill:none;fill-opacity:1;stroke:#969696;stroke-width:0.202598;stroke-dasharray:none;stroke-dashoffset:0.103009;stroke-opacity:1"
       id="ellipse57842"
       cx="143.81694"
       cy="23.217115"
       rx="13.106454"
       ry="25.844776"
       transform="rotate(58.29648)" />
    <path
       id="ellipse66966"
       style="color:#000000;fill:#979797;stroke-dashoffset:0.103009;-inkscape-stroke:none;fill-opacity:1"
       d="m 76.718053,98.212865 c 2.27765,-3.706348 5.208757,-5.949135 8.422822,-5.949135 2.71514,0 5.22729,1.60195 7.315108,4.333266 l -0.113517,0.183774 c -2.068603,-2.730729 -4.547837,-4.313813 -7.201999,-4.313813 -3.565263,0 -6.815293,2.854961 -9.177689,7.5134 -2.362397,4.658433 -3.828234,11.105703 -3.828233,18.228653 0,3.44155 0.344986,6.72323 0.965143,9.72419 l -0.15534,0.25148 c -0.650708,-3.07137 -1.010729,-6.44055 -1.010729,-9.97587 -10e-7,-7.15071 1.468246,-13.62451 3.849444,-18.320026 0.29765,-0.586939 0.609611,-1.146441 0.93499,-1.675919 z m 21.231519,13.655855 c 0.258969,2.02945 0.397896,4.15277 0.397895,6.34044 -10e-7,7.15071 -1.468246,13.62451 -3.849444,18.32002 -2.381197,4.69551 -5.684091,7.62719 -9.357308,7.62719 -2.014743,0 -3.917696,-0.88386 -5.618662,-2.45506 l 0.108086,-0.17498 c 1.677469,1.55809 3.545837,2.42655 5.510545,2.42654 3.565262,1e-5 6.815293,-2.85496 9.177689,-7.5134 2.362397,-4.65843 3.828169,-11.10757 3.828169,-18.23051 0,-2.08973 -0.129571,-4.11885 -0.367517,-6.06414 z"
       transform="matrix(-0.52552392,0.85077883,0.85077883,0.52552392,0,0)" />
    <ellipse
       style="fill:none;fill-opacity:1;stroke:#969696;stroke-width:0.202598;stroke-dasharray:none;stroke-dashoffset:0.103009;stroke-opacity:1"
       id="ellipse57844"
       cx="140.03087"
       cy="40.170921"
       rx="13.106454"
       ry="25.844776"
       transform="rotate(51.460219)" />
    <path
       id="ellipse66968"
       style="color:#000000;fill:#979797;stroke-dashoffset:0.103009;-inkscape-stroke:none;fill-opacity:1"
       d="m 63.321768,105.66477 c 2.053375,-2.59475 4.502962,-4.10785 7.143087,-4.10785 3.406071,0 6.49338,2.51966 8.823023,6.62977 l -0.135551,0.17017 c -2.312314,-4.11309 -5.362425,-6.59696 -8.687289,-6.59696 -3.565263,0 -6.815559,2.85491 -9.177956,7.51335 -2.362395,4.65843 -3.828072,11.10742 -3.828073,18.23036 0,2.57199 0.193541,5.05414 0.548958,7.3975 l -0.174188,0.21868 c -0.375223,-2.40854 -0.577743,-4.9654 -0.577743,-7.61599 10e-7,-7.15071 1.468474,-13.62666 3.849671,-18.32218 0.669712,-1.32061 1.412567,-2.50151 2.216061,-3.51685 z m 20.173995,17.62193 c 0.114021,1.37312 0.175974,2.78066 0.175975,4.2172 10e-7,7.15071 -1.468317,13.62481 -3.849514,18.32032 -2.381198,4.69552 -5.684074,7.62486 -9.357291,7.62486 -2.763249,0 -5.318411,-1.65793 -7.428369,-4.47827 l 0.131687,-0.16531 c 2.087479,2.80828 4.601624,4.44061 7.296499,4.44061 3.565263,0 6.815154,-2.85523 9.177551,-7.51368 2.362397,-4.65843 3.826464,-11.1054 3.826463,-18.22834 0,-1.35648 -0.05361,-2.68792 -0.155883,-3.9878 z"
       transform="matrix(-0.62305786,0.78217575,0.78217575,0.62305786,0,0)" />
    <ellipse
       style="fill:none;fill-opacity:1;stroke:#969696;stroke-width:0.202598;stroke-dasharray:none;stroke-dashoffset:0.103009;stroke-opacity:1"
       id="ellipse57846"
       cx="141.54146"
       cy="34.472652"
       rx="13.106454"
       ry="25.844776"
       transform="rotate(53.778929)" />
    <path
       id="ellipse66970"
       style="color:#000000;fill:#979797;stroke-dashoffset:0.103009;-inkscape-stroke:none;fill-opacity:1"
       d="m 68.15713,103.0542 c 2.105718,-2.80483 4.652153,-4.452681 7.407066,-4.452681 3.183875,0 6.091008,2.202201 8.359774,5.846431 l -0.129471,0.17677 c -2.250341,-3.64691 -5.119965,-5.819896 -8.229965,-5.819896 -3.565263,0 -6.813317,2.855216 -9.175714,7.513646 -2.362397,4.65844 -3.828496,11.10745 -3.828495,18.23039 0,2.84966 0.238357,5.58799 0.67111,8.15005 l -0.167336,0.22846 c -0.455803,-2.62943 -0.706773,-5.44539 -0.706773,-8.37859 -10e-7,-7.1507 1.468581,-13.62689 3.849779,-18.32241 0.595299,-1.17388 1.248119,-2.23722 1.950025,-3.17217 z m 20.378218,16.58964 c 0.154459,1.589 0.237975,3.22727 0.237975,4.90481 0,7.1507 -1.468498,13.62504 -3.849696,18.32055 -2.381198,4.69552 -5.686042,7.62519 -9.359258,7.62519 -2.522603,0 -4.870602,-1.38212 -6.865334,-3.76857 l 0.12428,-0.16968 c 1.971552,2.37414 4.280855,3.73483 6.741438,3.73483 3.565262,0 6.81518,-2.85512 9.177575,-7.51356 2.362397,-4.65844 3.827996,-11.10589 3.827996,-18.22884 10e-7,-1.59093 -0.07676,-3.14542 -0.216663,-4.65668 z"
       transform="matrix(-0.59090239,0.80674306,0.80674306,0.59090239,0,0)" />
    <text
       id="text56320"
       y="137.79164"
       x="30.594061"
       style="font-style:normal;font-variant:normal;font-weight:300;font-stretch:normal;font-size:10.0876px;line-height:1.25;font-family:Roboto;-inkscape-font-specification:'Roboto, Light';font-variant-ligatures:normal;font-variant-caps:normal;font-variant-numeric:normal;font-variant-east-asian:normal;letter-spacing:0.772583px;fill:#efefef;fill-opacity:1;stroke:none;stroke-width:0.252189"
       xml:space="preserve"><tspan
         style="font-style:normal;font-variant:normal;font-weight:900;font-stretch:normal;font-size:10.0876px;font-family:Roboto;-inkscape-font-specification:'Roboto, Heavy';font-variant-ligatures:normal;font-variant-caps:normal;font-variant-numeric:normal;font-variant-east-asian:normal;fill:#efefef;fill-opacity:1;stroke-width:0.252189"
         y="137.79164"
         x="30.594061"
         id="tspan56318"
         sodipodi:role="line">KHOLORS</tspan></text>
    <text
       id="text56324"
       y="140.9386"
       x="31.649197"
       style="font-style:normal;font-variant:normal;font-weight:bold;font-stretch:normal;font-size:3.01598px;line-height:1.25;font-family:Roboto;-inkscape-font-specification:'Roboto, Bold';font-variant-ligatures:normal;font-variant-caps:normal;font-variant-numeric:normal;font-variant-east-asian:normal;letter-spacing:0.933979px;fill:#eaeaea;fill-opacity:1;stroke:none;stroke-width:0.0753998"
       xml:space="preserve"><tspan
         style="font-style:normal;font-variant:normal;font-weight:bold;font-stretch:normal;font-size:3.01598px;font-family:Roboto;-inkscape-font-specification:'Roboto, Bold';font-variant-ligatures:normal;font-variant-caps:normal;font-variant-numeric:normal;font-variant-east-asian:normal;fill:#eaeaea;fill-opacity:1;stroke-width:0.0753998"
         y="140.9386"
         x="31.649197"
         id="tspan56322"
         sodipodi:role="line">trackless audio editor</tspan></text>
  </g>
</svg>
